<svg xmlns="http://www.w3.org/2000/svg" xmlns:xlink="http://www.w3.org/1999/xlink" width="250" zoomAndPan="magnify" viewBox="0 0 187.5 60" height="80" preserveAspectRatio="xMidYMid meet" version="1.0"><defs><g/></defs><path fill="#000000" d="M 55.914062 31.222656 L 46.710938 9.023438 C 41.539062 6.96875 36.171875 5.933594 30.605469 5.917969 C 25.042969 5.933594 19.675781 6.96875 14.503906 9.023438 L 5.300781 31.222656 L 5.300781 33.523438 C 5.300781 34.128906 5.359375 34.726562 5.476562 35.320312 C 5.59375 35.910156 5.769531 36.488281 6 37.042969 C 6.230469 37.601562 6.515625 38.132812 6.851562 38.636719 C 7.1875 39.136719 7.570312 39.601562 7.996094 40.03125 C 8.421875 40.457031 8.886719 40.839844 9.390625 41.175781 C 9.894531 41.511719 10.421875 41.792969 10.980469 42.023438 C 11.539062 42.257812 12.113281 42.429688 12.707031 42.546875 C 13.300781 42.667969 13.898438 42.726562 14.503906 42.726562 C 15.105469 42.726562 15.707031 42.667969 16.296875 42.546875 C 16.890625 42.429688 17.464844 42.257812 18.023438 42.023438 C 18.582031 41.792969 19.113281 41.511719 19.613281 41.175781 C 20.117188 40.839844 20.582031 40.457031 21.007812 40.03125 C 21.4375 39.601562 21.816406 39.136719 22.152344 38.636719 C 22.488281 38.132812 22.773438 37.601562 23.003906 37.042969 C 23.234375 36.488281 23.410156 35.910156 23.527344 35.320312 C 23.644531 34.726562 23.703125 34.128906 23.703125 33.523438 L 23.703125 31.222656 L 16.34375 13.96875 L 16.6875 13.046875 C 20.4375 11.652344 24.3125 10.847656 28.304688 10.632812 L 28.304688 49.628906 L 20.253906 49.628906 C 19.949219 49.628906 19.65625 49.683594 19.375 49.800781 C 19.089844 49.917969 18.84375 50.085938 18.628906 50.300781 C 18.410156 50.515625 18.246094 50.765625 18.128906 51.046875 C 18.011719 51.328125 17.953125 51.621094 17.953125 51.925781 C 17.953125 52.234375 18.011719 52.527344 18.128906 52.808594 C 18.246094 53.089844 18.410156 53.339844 18.628906 53.554688 C 18.84375 53.769531 19.089844 53.9375 19.375 54.054688 C 19.65625 54.167969 19.949219 54.226562 20.253906 54.226562 L 40.957031 54.226562 C 41.265625 54.226562 41.558594 54.167969 41.839844 54.054688 C 42.121094 53.9375 42.371094 53.769531 42.585938 53.554688 C 42.800781 53.339844 42.96875 53.089844 43.085938 52.808594 C 43.199219 52.527344 43.257812 52.234375 43.257812 51.925781 C 43.257812 51.621094 43.199219 51.328125 43.085938 51.046875 C 42.96875 50.765625 42.800781 50.515625 42.585938 50.300781 C 42.371094 50.085938 42.121094 49.917969 41.839844 49.800781 C 41.558594 49.683594 41.265625 49.628906 40.957031 49.628906 L 32.90625 49.628906 L 32.90625 10.632812 C 36.902344 10.847656 40.773438 11.652344 44.523438 13.046875 L 44.871094 13.96875 L 37.507812 31.222656 L 37.507812 33.523438 C 37.507812 34.128906 37.566406 34.726562 37.683594 35.320312 C 37.804688 35.910156 37.976562 36.488281 38.207031 37.042969 C 38.441406 37.601562 38.722656 38.132812 39.058594 38.636719 C 39.394531 39.136719 39.777344 39.601562 40.203125 40.03125 C 40.628906 40.457031 41.09375 40.839844 41.597656 41.175781 C 42.101562 41.511719 42.628906 41.792969 43.1875 42.023438 C 43.746094 42.257812 44.324219 42.429688 44.914062 42.546875 C 45.507812 42.667969 46.105469 42.726562 46.710938 42.726562 C 47.3125 42.726562 47.914062 42.667969 48.503906 42.546875 C 49.097656 42.429688 49.671875 42.257812 50.230469 42.023438 C 50.789062 41.792969 51.320312 41.511719 51.824219 41.175781 C 52.324219 40.839844 52.789062 40.457031 53.21875 40.03125 C 53.644531 39.601562 54.027344 39.136719 54.363281 38.636719 C 54.695312 38.132812 54.980469 37.601562 55.210938 37.042969 C 55.441406 36.488281 55.617188 35.910156 55.734375 35.320312 C 55.851562 34.726562 55.914062 34.128906 55.914062 33.523438 Z M 19.332031 31.222656 L 8.980469 31.222656 L 14.503906 18.914062 Z M 46.710938 18.914062 L 51.542969 31.222656 L 41.1875 31.222656 Z M 46.710938 18.914062 " fill-opacity="1" fill-rule="nonzero"/><g fill="#000000" fill-opacity="1"><g transform="translate(65.896994, 37.768416)"><g><path d="M 0 -14.90625 L 9.640625 -14.90625 L 9.640625 -12.265625 L 0 -12.265625 Z M 5.890625 -6.359375 L 5.890625 -5.734375 C 5.890625 -5.085938 5.753906 -4.625 5.484375 -4.34375 C 5.210938 -4.070312 4.820312 -3.9375 4.3125 -3.9375 C 3.945312 -3.9375 3.554688 -4.039062 3.140625 -4.25 C 2.722656 -4.46875 2.332031 -4.75 1.96875 -5.09375 C 1.613281 -5.445312 1.320312 -5.828125 1.09375 -6.234375 C 0.863281 -6.648438 0.75 -7.039062 0.75 -7.40625 C 0.75 -7.800781 0.851562 -8.160156 1.0625 -8.484375 C 1.28125 -8.816406 1.738281 -8.984375 2.4375 -8.984375 L 9.6875 -8.984375 L 9.6875 -6.359375 Z M 5.890625 -6.359375 "/></g></g></g><g fill="#000000" fill-opacity="1"><g transform="translate(73.301144, 37.768416)"><g><path d="M 15.5625 -14.90625 L 15.5625 -12.265625 L 13.296875 -12.265625 L 13.296875 0 L 10.09375 0 L 10.09375 -3.515625 C 9.070312 -2.867188 7.84375 -2.546875 6.40625 -2.546875 C 5.3125 -2.546875 4.375 -2.789062 3.59375 -3.28125 C 2.8125 -3.78125 2.179688 -4.460938 1.703125 -5.328125 C 1.222656 -6.203125 0.882812 -7.191406 0.6875 -8.296875 C 1.601562 -8.472656 2.285156 -8.75 2.734375 -9.125 C 3.179688 -9.5 3.40625 -10.015625 3.40625 -10.671875 C 3.40625 -10.972656 3.351562 -11.257812 3.25 -11.53125 C 3.15625 -11.800781 3.039062 -12.046875 2.90625 -12.265625 L 0 -12.265625 L 0 -14.90625 Z M 4.140625 -6.90625 C 4.398438 -6.363281 4.734375 -5.9375 5.140625 -5.625 C 5.546875 -5.320312 6.0625 -5.171875 6.6875 -5.171875 C 8.039062 -5.171875 9.175781 -5.75 10.09375 -6.90625 L 10.09375 -12.265625 L 5.984375 -12.265625 C 6.179688 -11.929688 6.332031 -11.585938 6.4375 -11.234375 C 6.550781 -10.890625 6.609375 -10.492188 6.609375 -10.046875 C 6.609375 -8.585938 5.785156 -7.539062 4.140625 -6.90625 Z M 4.140625 -6.90625 "/></g></g></g><g fill="#000000" fill-opacity="1"><g transform="translate(88.517433, 37.768416)"><g><path d="M 5.125 -12.265625 L 5.125 0 L 1.921875 0 L 1.921875 -12.265625 L 0 -12.265625 L 0 -14.90625 L 7.40625 -14.90625 L 7.40625 -12.265625 Z M 5.125 -12.265625 "/></g></g></g><g fill="#000000" fill-opacity="1"><g transform="translate(95.65833, 37.768416)"><g><path d="M 15.5625 -14.90625 L 15.5625 -12.265625 L 13.296875 -12.265625 L 13.296875 0 L 10.09375 0 L 10.09375 -3.515625 C 9.070312 -2.867188 7.84375 -2.546875 6.40625 -2.546875 C 5.3125 -2.546875 4.375 -2.789062 3.59375 -3.28125 C 2.8125 -3.78125 2.179688 -4.460938 1.703125 -5.328125 C 1.222656 -6.203125 0.882812 -7.191406 0.6875 -8.296875 C 1.601562 -8.472656 2.285156 -8.75 2.734375 -9.125 C 3.179688 -9.5 3.40625 -10.015625 3.40625 -10.671875 C 3.40625 -10.972656 3.351562 -11.257812 3.25 -11.53125 C 3.15625 -11.800781 3.039062 -12.046875 2.90625 -12.265625 L 0 -12.265625 L 0 -14.90625 Z M 4.140625 -6.90625 C 4.398438 -6.363281 4.734375 -5.9375 5.140625 -5.625 C 5.546875 -5.320312 6.0625 -5.171875 6.6875 -5.171875 C 8.039062 -5.171875 9.175781 -5.75 10.09375 -6.90625 L 10.09375 -12.265625 L 5.984375 -12.265625 C 6.179688 -11.929688 6.332031 -11.585938 6.4375 -11.234375 C 6.550781 -10.890625 6.609375 -10.492188 6.609375 -10.046875 C 6.609375 -8.585938 5.785156 -7.539062 4.140625 -6.90625 Z M 4.140625 -6.90625 "/></g></g></g><g fill="#000000" fill-opacity="1"><g transform="translate(110.970495, 37.768416)"><g><path d="M 12.78125 -12.265625 L 12.78125 0 L 9.5625 0 L 9.5625 -3.828125 C 9 -3.523438 8.453125 -3.316406 7.921875 -3.203125 C 7.398438 -3.097656 6.773438 -3.046875 6.046875 -3.046875 C 5.304688 -3.046875 4.664062 -3.148438 4.125 -3.359375 C 3.582031 -3.578125 3.140625 -3.875 2.796875 -4.25 C 2.398438 -4.6875 2.101562 -5.195312 1.90625 -5.78125 C 1.71875 -6.363281 1.625 -7.191406 1.625 -8.265625 L 1.625 -12.265625 L 0 -12.265625 L 0 -14.90625 L 15.03125 -14.90625 L 15.03125 -12.265625 Z M 9.5625 -12.265625 L 4.84375 -12.265625 L 4.84375 -8.46875 C 4.84375 -7.707031 4.878906 -7.175781 4.953125 -6.875 C 5.035156 -6.570312 5.179688 -6.3125 5.390625 -6.09375 C 5.660156 -5.820312 6.101562 -5.6875 6.71875 -5.6875 C 7.320312 -5.6875 7.875 -5.832031 8.375 -6.125 C 8.875 -6.414062 9.269531 -6.707031 9.5625 -7 Z M 9.5625 -12.265625 "/></g></g></g><g fill="#000000" fill-opacity="1"><g transform="translate(125.659606, 37.768416)"><g><path d="M 5.125 -12.265625 L 5.125 0 L 1.921875 0 L 1.921875 -12.265625 L 0 -12.265625 L 0 -14.90625 L 7.40625 -14.90625 L 7.40625 -12.265625 Z M 5.125 -12.265625 "/></g></g></g><g fill="#000000" fill-opacity="1"><g transform="translate(132.800503, 37.768416)"><g><path d="M 1.921875 -12.265625 L 0 -12.265625 L 0 -14.90625 L 1.796875 -14.90625 C 1.585938 -15.320312 1.425781 -15.722656 1.3125 -16.109375 C 1.207031 -16.503906 1.15625 -16.921875 1.15625 -17.359375 C 1.15625 -18.628906 1.695312 -19.628906 2.78125 -20.359375 C 3.863281 -21.097656 5.445312 -21.46875 7.53125 -21.46875 C 9.207031 -21.46875 10.757812 -21.28125 12.1875 -20.90625 C 13.613281 -20.53125 14.925781 -20.023438 16.125 -19.390625 C 17.320312 -18.753906 18.410156 -18.03125 19.390625 -17.21875 C 20.367188 -16.414062 21.238281 -15.585938 22 -14.734375 L 18.1875 -14.734375 C 16.78125 -16.003906 15.203125 -17 13.453125 -17.71875 C 11.703125 -18.445312 9.894531 -18.8125 8.03125 -18.8125 C 5.601562 -18.8125 4.390625 -18.09375 4.390625 -16.65625 C 4.390625 -16.320312 4.4375 -16.003906 4.53125 -15.703125 C 4.625 -15.410156 4.742188 -15.144531 4.890625 -14.90625 L 7.40625 -14.90625 L 7.40625 -12.265625 L 5.125 -12.265625 L 5.125 0 L 1.921875 0 Z M 1.921875 -12.265625 "/></g></g></g><g fill="#000000" fill-opacity="1"><g transform="translate(139.845523, 37.768416)"><g><path d="M 0 -12.265625 L 0 -14.90625 L 18.03125 -14.90625 L 18.03125 -12.265625 L 15.765625 -12.265625 L 15.765625 0 L 12.5625 0 L 12.5625 -7.59375 C 12.238281 -7.582031 11.90625 -7.484375 11.5625 -7.296875 C 11.21875 -7.109375 10.894531 -6.789062 10.59375 -6.34375 C 10.289062 -5.90625 10.023438 -5.285156 9.796875 -4.484375 L 6.8125 -5.390625 C 6.945312 -5.921875 7.117188 -6.410156 7.328125 -6.859375 C 7.078125 -7.046875 6.816406 -7.195312 6.546875 -7.3125 C 6.285156 -7.4375 5.988281 -7.5 5.65625 -7.5 C 5.15625 -7.5 4.769531 -7.367188 4.5 -7.109375 C 4.226562 -6.847656 4.09375 -6.515625 4.09375 -6.109375 C 4.09375 -5.679688 4.210938 -5.265625 4.453125 -4.859375 C 4.691406 -4.460938 5.078125 -4.015625 5.609375 -3.515625 C 6.148438 -3.023438 6.882812 -2.425781 7.8125 -1.71875 L 5.734375 0.40625 C 4.609375 -0.488281 3.691406 -1.304688 2.984375 -2.046875 C 2.273438 -2.785156 1.75 -3.5 1.40625 -4.1875 C 1.0625 -4.875 0.890625 -5.597656 0.890625 -6.359375 C 0.890625 -7.316406 1.097656 -8.078125 1.515625 -8.640625 C 1.941406 -9.203125 2.46875 -9.601562 3.09375 -9.84375 C 3.726562 -10.082031 4.359375 -10.203125 4.984375 -10.203125 C 5.785156 -10.203125 6.488281 -10.101562 7.09375 -9.90625 C 7.695312 -9.707031 8.304688 -9.398438 8.921875 -8.984375 C 9.890625 -9.785156 11.085938 -10.1875 12.515625 -10.1875 L 12.5625 -10.1875 L 12.5625 -12.265625 Z M 0 -12.265625 "/></g></g></g><g fill="#000000" fill-opacity="1"><g transform="translate(157.625843, 37.768416)"><g><path d="M 20.0625 -12.265625 L 12.34375 -12.265625 L 12.34375 -8.9375 C 13.113281 -9.382812 13.992188 -9.609375 14.984375 -9.609375 C 16.117188 -9.609375 17.046875 -9.253906 17.765625 -8.546875 C 18.492188 -7.847656 18.859375 -6.875 18.859375 -5.625 C 18.859375 -4.925781 18.726562 -4.140625 18.46875 -3.265625 C 18.207031 -2.398438 17.78125 -1.523438 17.1875 -0.640625 L 14.375 -2.203125 C 14.726562 -2.703125 15.03125 -3.210938 15.28125 -3.734375 C 15.53125 -4.265625 15.65625 -4.8125 15.65625 -5.375 C 15.65625 -5.957031 15.53125 -6.367188 15.28125 -6.609375 C 15.03125 -6.847656 14.707031 -6.96875 14.3125 -6.96875 C 13.945312 -6.96875 13.59375 -6.851562 13.25 -6.625 C 12.90625 -6.40625 12.601562 -6.171875 12.34375 -5.921875 L 12.34375 0 L 9.125 0 L 9.125 -3.046875 C 8.601562 -2.742188 8.070312 -2.507812 7.53125 -2.34375 C 7 -2.1875 6.382812 -2.109375 5.6875 -2.109375 C 4.800781 -2.109375 3.992188 -2.265625 3.265625 -2.578125 C 2.546875 -2.898438 1.96875 -3.382812 1.53125 -4.03125 C 1.101562 -4.6875 0.890625 -5.492188 0.890625 -6.453125 C 0.890625 -7.328125 1.101562 -8.09375 1.53125 -8.75 C 1.96875 -9.40625 2.566406 -9.910156 3.328125 -10.265625 C 4.097656 -10.628906 4.984375 -10.8125 5.984375 -10.8125 C 6.429688 -10.8125 6.882812 -10.789062 7.34375 -10.75 C 7.800781 -10.707031 8.15625 -10.65625 8.40625 -10.59375 L 8.171875 -7.9375 C 7.660156 -8.0625 7.09375 -8.125 6.46875 -8.125 C 5.71875 -8.125 5.132812 -7.972656 4.71875 -7.671875 C 4.300781 -7.378906 4.09375 -6.972656 4.09375 -6.453125 C 4.09375 -5.804688 4.289062 -5.363281 4.6875 -5.125 C 5.09375 -4.882812 5.523438 -4.765625 5.984375 -4.765625 C 6.660156 -4.765625 7.257812 -4.914062 7.78125 -5.21875 C 8.300781 -5.53125 8.75 -5.882812 9.125 -6.28125 L 9.125 -12.265625 L 0 -12.265625 L 0 -14.90625 L 20.0625 -14.90625 Z M 20.0625 -12.265625 "/></g></g></g><g fill="#000000" fill-opacity="1"><g transform="translate(177.34712, 37.768416)"><g><path d="M 5.125 -12.265625 L 5.125 0 L 1.921875 0 L 1.921875 -12.265625 L 0 -12.265625 L 0 -14.90625 L 7.40625 -14.90625 L 7.40625 -12.265625 Z M 5.125 -12.265625 "/></g></g></g></svg>