<svg width="81" height="80" viewBox="0 0 81 80" fill="none" xmlns="http://www.w3.org/2000/svg">
<g id="Frame">
<g id="Group">
<path id="Vector" d="M40.5 78.75C61.901 78.75 79.25 61.401 79.25 40C79.25 18.599 61.901 1.25 40.5 1.25C19.0989 1.25 1.74997 18.599 1.74997 40C1.74997 61.401 19.0989 78.75 40.5 78.75Z" fill="#F7F7F7"/>
<g id="Group_2">
<path id="Vector_2" d="M71.5962 63.0937C67.9822 58.2553 63.2895 54.3265 57.8911 51.6196C52.4926 48.9127 46.5372 47.5022 40.4981 47.5002C34.459 47.4983 28.5027 48.905 23.1025 51.6084C17.7023 54.3119 13.0071 58.2376 9.38997 63.0737C12.9886 67.9344 17.676 71.8842 23.0765 74.6065C28.477 77.3288 34.4402 78.7478 40.4881 78.7498C46.5359 78.7517 52.5 77.3365 57.9023 74.6177C63.3045 71.8989 67.9945 67.952 71.5962 63.0937Z" fill="#BDBDBD"/>
<path id="Vector_3" d="M40.5 42.5C48.7842 42.5 55.5 35.7843 55.5 27.5C55.5 19.2157 48.7842 12.5 40.5 12.5C32.2157 12.5 25.5 19.2157 25.5 27.5C25.5 35.7843 32.2157 42.5 40.5 42.5Z" fill="#BDBDBD"/>
</g>
</g>
</g>
</svg>
